<?xml version="1.0" encoding="utf-8"?>
<!-- Generator: Adobe Illustrator 26.2.1, SVG Export Plug-In . SVG Version: 6.00 Build 0)  -->
<svg version="1.1" id="Layer_1" xmlns="http://www.w3.org/2000/svg" xmlns:xlink="http://www.w3.org/1999/xlink" x="0px" y="0px"
	 viewBox="0 0 250 96" style="enable-background:new 0 0 250 96;" xml:space="preserve">
<style type="text/css">
	.st0{fill:#F5E7FA;enable-background:new    ;}
	.st1{fill:url(#SVGID_1_);enable-background:new    ;}
	.st2{fill:#EBBDF9;enable-background:new    ;}
</style>
<path id="Rectangle_2062-2" class="st0" d="M10,0h230c5.5,0,10,4.5,10,10v76c0,5.5-4.5,10-10,10H10C4.5,96,0,91.5,0,86V10
	C0,4.5,4.5,0,10,0z"/>
<linearGradient id="SVGID_1_" gradientUnits="userSpaceOnUse" x1="-0.7008" y1="44.789" x2="27.5972" y2="-1.3052">
	<stop  offset="2.086521e-02" style="stop-color:#E0CEF3"/>
	<stop  offset="1" style="stop-color:#EEE3F8"/>
</linearGradient>
<path class="st1" d="M0,10v36.1c20.6,0,37.3-16.7,37.3-37.3c0-3-0.4-6-1.1-8.8H10C4.5,0,0,4.5,0,10z"/>
<path class="st2" d="M237.8,55.1H250v-1.5h-6.2C241.7,54,239.7,54.5,237.8,55.1z"/>
<path class="st2" d="M250,57.9h-19c-0.9,0.5-1.9,1-2.8,1.5H250V57.9z"/>
<path class="st2" d="M250,62.1h-25.9c-0.7,0.5-1.3,1-1.9,1.5H250V62.1z"/>
<path class="st2" d="M250,66.4h-30.9c-0.5,0.5-1,1-1.5,1.5H250V66.4z"/>
<path class="st2" d="M250,70.7h-34.8c-0.4,0.5-0.8,1-1.2,1.5h36V70.7z"/>
<path class="st2" d="M250,75h-37.9c-0.3,0.5-0.6,1-0.9,1.5H250V75z"/>
<path class="st2" d="M250,79.2h-40.3c-0.2,0.5-0.5,1-0.7,1.5h41V79.2z"/>
<path class="st2" d="M250,83.5h-42.2c-0.2,0.5-0.4,1-0.5,1.5H250V83.5z"/>
<path class="st2" d="M249.8,87.8h-43.4c-0.1,0.5-0.3,1-0.4,1.5h43.4C249.6,88.9,249.7,88.4,249.8,87.8z"/>
<path class="st2" d="M247.9,92.1h-42.5c-0.1,0.5-0.2,1-0.3,1.5h41.3C247,93.2,247.4,92.7,247.9,92.1z"/>
</svg>
